<svg xmlns="http://www.w3.org/2000/svg" width="330" height="348.754" viewBox="0 0 330 348.754">
  <defs>
    <style>
      .cls-1 {
        fill: #d6d2c4;
      }

      .cls-2 {
        fill: #fff;
      }

      .cls-3 {
        fill: #f8971f;
      }
    </style>
  </defs>
  <g id="Group_2281" data-name="Group 2281" transform="translate(44.049 -980.214)">
    <g id="discover" transform="translate(37.888 1201.581)">
      <path id="r" class="cls-1" d="M559.208,311.809c-.77.237-1.634-.262-1.443,1.031-.027,2.206-.1,4.176-.113,6.495-.145,6.578-.347,12.455-.654,18.77-.163,1.318,1.089,1.039,1.9,1.079a23.442,23.442,0,0,1,5.072.11c1.041-.052.855-.164.927-1.675-.038-1.662.362-3.694.285-4.9-.08-.734.024-1.638,1.1-1.2a5.415,5.415,0,0,1,1.736.816c1.653,1.448,1.472,4.051,1.616,6.548-.176.3,2.314.156,2.4.107.969.1,3.887-.006,4.12.141a.928.928,0,0,0,1.129-.224c-.075-2.409.025-4.455-.553-5.686-.14-.138-.236-.293-.222-.359.055-.512-.435-1.18-.64-1.6-.069-.591-2.416-2.047-1.715-2.664.726-.365,1.167-1.2,1.69-1.811a8.373,8.373,0,0,0,1.615-5.2c-.122-2.971-1.218-5.994-3.821-7.447a9.048,9.048,0,0,0-5.3-1.81,74.216,74.216,0,0,0-9.133-.52m6.927,6.965c3.523-.257,4.537,3.12,3.125,5.756a5.511,5.511,0,0,1-1.36.577c-.2.134-.425.157-1.522.157s-1.274-.018-1.224-.132a58.862,58.862,0,0,0,.1-5.971c-.19-.66.591-.463.88-.388" transform="translate(-411.31 -311.215)"/>
      <path id="e" class="cls-1" d="M536.084,312.977c-6.338.842-5.384-1.884-4.92,6.993-.008,1.2.135,3.6.274,4.891a87.614,87.614,0,0,0-.064,10.028,20.949,20.949,0,0,0,.059,4.543,51.11,51.11,0,0,0,6.186-.013c.537-.154,1.477.191,2,.081a8.135,8.135,0,0,1,1.955-.1,17.153,17.153,0,0,0,2.631-.1c.472.252,1.6-.265,1.344-.906-.406.083.527-3.927-.124-4.495-1.914-.123-5.43-.12-7.488-.124.2-.767-.449-3.639.47-3.719,1.627-.371,3.827-.045,5.295-.614.592-.143.542-.128.565-.99a30.034,30.034,0,0,0-.123-4.177c-1.276-.238-2.719.23-3.741.219-.548.067-1.454-.078-1.913.206-.151.122-.424.012-.527-.21a20.5,20.5,0,0,1-.207-3.076c2.125-.188,4.767-.3,6.417-.449,1.814-.153,2,.131,1.723-1.678.08-1.126-.057-4.806.127-4.8-.122-.376.012-1-.374-1.361-3.286-.087-6.649-.144-9.567-.148" transform="translate(-403.896 -311.546)"/>
      <path id="v" class="cls-1" d="M510.007,313.317c-.737.122-.932,3.61-1.184,4.509-.367,2.234-.858,4.316-1.311,6.465-.607,1.526-.768,6.413-1.513,1.576a13.812,13.812,0,0,1-.491-2.272c.032-.317-.181-.4-.289-.891-.27-.692.064-.622-.095-1.18-.5-2.146-.855-4.357-1.355-6.527-.225-.856-.107-1.276-1.235-1.254a33.6,33.6,0,0,0-4.14-.144c-.2-.139-.785.176-.973.092-.3-.184-1.455.07-1.785,0-1.346-.413.176,2.325.309,2.8.616,1.407.75,2.482,1.3,4.045a27.8,27.8,0,0,1,1.584,4.618c.642,1.5.633,3.094,1.486,4.409a37.9,37.9,0,0,0,1.465,5.5c.262,1.111.617,2.209.962,3.291-.282.42,3.534.384,3.676.31.5-.245,1.84.15,2.082-.077.282-.158,1.153.142,1.435-.052.56-.014,1.889.232,2.268-.246.357-.034.284-1.071.363-1.34.288-.836-.032-1.1.352-2.082.685-3.024,1.119-6.282,1.512-9.393.525-3.6,1.518-7.432,2.186-11.125.456-1.453-1.832-.826-2.421-.874a26.767,26.767,0,0,0-4.194-.154" transform="translate(-393.768 -311.636)"/>
      <path id="o" class="cls-1" d="M475.2,311.958c-3.96.57-7.959,2.171-9.923,6.181-.344,1.07-.843,2.29-1.2,3.171-.128.723-.368,1.354-.573,2.09a16.455,16.455,0,0,0,.659,8.206,5.752,5.752,0,0,0,1.9,2.993c.068.441,1.5,1.522,1.7,1.641a12.661,12.661,0,0,0,9.566,1.6c2.026-.218,3.88-1.533,5.41-2.758,1.013-.567,1.137-1.412,1.69-2.191,1.147-1.273,1.328-3.269,1.5-4.911a22.773,22.773,0,0,0-.38-7.513c-.1-.987-.334-.9-.4-1.415a2.458,2.458,0,0,0-.5-1.625c-1.173-1.6-3.033-3.687-4.985-4.487-1.4-.419-2.972-1.273-4.457-.981m.672,9.317a4.462,4.462,0,0,1,2.392,2.48c.1,1.177.557,2.649.3,3.8a10.446,10.446,0,0,0-.346,1.121.225.225,0,0,1-.14.3c-.206.111-.492.423-.5.542a3.694,3.694,0,0,1-4.253,1.352,3,3,0,0,1-2.2-1.814c-.36-.563-.644-.507-.7-1.427a5.594,5.594,0,0,1,.992-5.142,4.143,4.143,0,0,1,4.444-1.215" transform="translate(-384.751 -311.24)"/>
      <path id="c" class="cls-1" d="M449.209,311.026a40.614,40.614,0,0,1-4.231.532c-1.048.159-2.026.6-3.092.806a16.245,16.245,0,0,0-7.142,5.482,14.222,14.222,0,0,0-2.927,12.6c.352.565.292,1.191.631,1.777a20.477,20.477,0,0,1,1.5,3.357A10.06,10.06,0,0,0,442.81,340a4.826,4.826,0,0,0,2.062-.048,3.621,3.621,0,0,0,1.7-.125,9.434,9.434,0,0,0,4.132-.934c1.64-.511.608-1.829.416-3.225a22.986,22.986,0,0,0-.585-2.573c-.129-.583-.082-1.127-.5-1.571-3.268,1.564-8.65,1.959-9.682-2.458-.133-.074-.136-.107-.024-.33.331-.4-.093-1.153.09-1.551.282-.3.273-1.291.466-1.592.026-.551.9-1.494.973-1.748.16-.362.264-.166.429-.594s.341-.272.585-.479c.494-.266.594-.555,1.093-.874a21.435,21.435,0,0,1,5.319-1.658c.689-.305,1.838.4,1.743-.882a40.287,40.287,0,0,0,.422-4.593c.039-3.009,1.74-4.03-2.24-3.744" transform="translate(-375.73 -310.98)"/>
      <path id="s" class="cls-1" d="M415.021,312.4c-.3.03-.191.3-.4.148-.62-.241-1.738.284-2.47.388a8.374,8.374,0,0,0-4.07,2.017c-2.4,2.722-3.108,7.1-.643,10.209.727.426.742.983,1.418,1.241.176-.01.7.444.883.429.651.232,2.117.937,2.243,1.385a2.155,2.155,0,0,1,.59,2.945c-.665,1.233-3.057.8-4.227.494-.489-.075-1.755-.741-2.037-.247-.142.259-.224,3.418-.425,4.346-.011.741-.408,1.586-.106,2.243.279.333,1.862.36,2.394.581.9.229,2.276.472,3.027.583,1.88-.12,4.042-.024,5.694-.752a4.023,4.023,0,0,0,2-1.1,4.763,4.763,0,0,0,2-2.845c.378-.549.234-1.612.343-2.2a4.2,4.2,0,0,0,.152-2.079c-.259-.329.1-.761-.095-1.063-.381-1.291-1.434-3.21-2.911-3.587-.917-.484-2.161-.566-3-1.2-1.65-1.571-.62-3.67.977-4.606.618-.94,4.033-.369,4.982-.517a25.151,25.151,0,0,0,1.212-4.333c.258-.874.971-2.075-.5-2.221a31.078,31.078,0,0,0-7.034-.261" transform="translate(-368.427 -311.358)"/>
      <path id="i" class="cls-1" d="M391.6,314.162c-5.449.368-3.674-1.014-3.913,6.622.131,4-.047,9.27.062,13.129-.108,1.284-.052,3.26-.155,4.635.373.434-.963,4.229,2.174,3.032,1.057-.226,3.822-.183,5.117-.389.528.045.533.044.676-.234.21-.515-.077-1.394.012-1.926a4.638,4.638,0,0,0-.09-1.686c-.047-.155.174-.606.02-.78-.079-.148-.078-.224,0-.321.176-.432-.269-1.589-.169-2.033a.861.861,0,0,0-.006-.767,12.385,12.385,0,0,0,.013-1.576c-.175-4.845-.062-8.945-.373-14.151-.355-3.738.925-3.511-3.373-3.554" transform="translate(-363.304 -311.882)"/>
      <path id="d" class="cls-1" d="M357.549,313.132a9.105,9.105,0,0,0-1.546.214c-.223.113-.269.112-.4,0s-.244-.118-.639-.058c-.624.106-1.2-.165-1.265.627a29.721,29.721,0,0,0,.17,4.586c.372,1.339-.032,4.57.213,5.917.406,2.5.123,3.677.264,6.511.232,3.146-.2,7.319.128,10.176-.174,1.146.678.67,2.291.833,2.491.043,2.414.046,2.526-.1,2.4-.362,4.482-.055,6.587-.975a6.673,6.673,0,0,0,2.169-.633,11.27,11.27,0,0,0,4.251-2.593,6.386,6.386,0,0,0,1.076-1.878,7.815,7.815,0,0,0,1.13-3.491c.6-1.883.282-4.577.5-6.495a19.191,19.191,0,0,0-.775-4.985,8.463,8.463,0,0,0-2.6-4.267,1.194,1.194,0,0,0-.7-.709,1.988,1.988,0,0,0-1.113-.631c-.706-.219-1.228-.835-2.087-.95-2.757-1.367-7.14-1.054-10.176-1.094m5.205,8.143c4.621.752,5.346,6.24,3.5,9.921-.058.438-2.017,2.214-2.507,2.063-.552-.042-1.775.831-1.707-.265-.237-3.893-.181-7.611-.247-11.744.319.2.757-.213.958.025" transform="translate(-353.699 -311.588)"/>
    </g>
    <g id="texas" transform="translate(-44.049 1237.139)">
      <path id="s-2" data-name="s" class="cls-2" d="M650.489,361.511c-4.657.074-8.978,3.038-12.912,4.951-9.387,5.642-15.4,17.45-14.6,28.247a16.288,16.288,0,0,0,2.547,7.1,9.3,9.3,0,0,0,1.7,2.1c.416.239,1,1.344,1.45,1.706,1.064.539,1.964,1.617,3.271,1.84.536.13.57.329,1.223.589a12.324,12.324,0,0,0,5.751,1.364,46.926,46.926,0,0,0,9.056-.257c2.624-.04,4.042-.573,6.606.248,2.1.708,4.012,1.354,4.754,3.536.3.994,1.174,2.312.9,2.646a5.861,5.861,0,0,1-.679,2.831c-.381,1.468-1.706,1.566-2.71,2.211a14.19,14.19,0,0,1-7.67-.526c-2.743-.5-5-1.992-7.69-2.874a13.7,13.7,0,0,0-6.3-1.932,10.62,10.62,0,0,0-8.38,4.754,14.446,14.446,0,0,0-1.258,12.258c.525,1.028,1.292,1.943,1.817,2.967a13.512,13.512,0,0,0,1.975,2.378c.421.18.282.578.74.732a31.664,31.664,0,0,0,6.011,3.757c1.692.813,2.8,1.623,4.72,1.944,2.282.568,4.611.891,6.986,1.3a40.579,40.579,0,0,0,10.732-1.13,27.561,27.561,0,0,0,4.8-1.961,23.994,23.994,0,0,0,5.212-3.007,32.308,32.308,0,0,0,6.04-6.6,26.813,26.813,0,0,0,2.972-6.917,28.182,28.182,0,0,0-1.872-22.515c-.058-.5-1.081-1.25-1.257-1.736-.11-.2-.8-.456-1.018-.949a20.349,20.349,0,0,0-4.228-3.125c-1.695-1.223-3.966-1.477-5.956-1.992-2.473-.5-6.536.2-9.193.733a4.543,4.543,0,0,0-2.544.434,18.408,18.408,0,0,1-5.87,0,7.907,7.907,0,0,1-4.052-1.526,4.973,4.973,0,0,1-1.936-5.122c.061-.369-.272-.4.2-.83.254-.19.133-.4.346-.521.172-.021.088-.485.222-.5.049,0,.09-.077.09-.171a.248.248,0,0,1,.137-.222c.194-.082.1-.39.274-.509.23-.434.745-.707.937-1.124.039-.122.762-.383.776-.556a4.658,4.658,0,0,1,1.78-1.052,9.665,9.665,0,0,1,6.875-.183c2.487.99,4.788,2.6,7.23,3.665a12.161,12.161,0,0,0,5.327,1.273,15.25,15.25,0,0,0,5.336-.355c.6.09,1.319-.685,1.8-.873.478-.244.736-.125,1.081-.479a10.935,10.935,0,0,0,3.278-4.373,14.872,14.872,0,0,0,.618-9.376c.086-.553-.592-.54-.611-1.142a17.178,17.178,0,0,0-2.416-3.42,23.492,23.492,0,0,0-9.009-5.433c-3.958-1.943-9.167-2.314-13.4-2.262" transform="translate(-349.062 -361.507)"/>
      <path id="a" class="cls-2" d="M555.569,365.6a19.511,19.511,0,0,0-3.621,1.119c-.337.025-1.2,1.061-1.756,1.248-.36.037-.521.625-.907.785-1.664,1.566-2.394,3.948-3.554,5.845-.85,1.371-2.35,5.53-2.243,6.812a33.77,33.77,0,0,0-1,5.913c-.38,3.428-1.342,6.561-1.9,9.591-.88,3.326-1.388,5.882-2.426,9.046-.795,1.974-1.377,4.646-2.416,6.759a5.544,5.544,0,0,0-.672,1.752c-.119,0-.446.693-.393.833-.522,1.162-1.233,2.5-1.726,3.683a32.822,32.822,0,0,0-1.325,3.872,24.473,24.473,0,0,0-1.26,5.369,54.77,54.77,0,0,0-1.187,5.427,25.989,25.989,0,0,0,.125,6.729c.868,3.206,2.07,6.222,5.112,7.987.225.234.4.065.536.252a3.671,3.671,0,0,0,1.508.66c.727.1,1.207.523,2.033.491.546-.071.63.156,1.048.029.294-.111,1.03.223,1.292,0,.919-.16,1.58-.1,2.328-.31,1.6-.288,3.761-1.422,4.507-2.725a7.607,7.607,0,0,0,1.827-2.717c.208-.392,1.021-1.9.874-1.942-.029-.048,0-.1.079-.133.174-.06.08-.464.264-.52.086-.031.117-.111.082-.219-.005-.325.38-.518.355-1.125-.014-.416.445-.879.465-1.245a2.919,2.919,0,0,1,.336-1.163,2.24,2.24,0,0,1,.162-.8c.247-1.317.589-2.532.8-3.942.149-2,.4-4.517,1.484-6.3.813-1.321,1.86-2.921,3.592-3.394,7.591-2.9,8.932.987,10.222,7.695a19.627,19.627,0,0,0,1.245,4.107,16.9,16.9,0,0,0,2.878,5.425,3.147,3.147,0,0,0,1.37.929c.322.32,1.292.916,1.641,1.184,2.158,1.352,4.031,1.339,7.405.967a35.439,35.439,0,0,0,4.07-1.483c1.176-.186,2.644-1.656,3.314-2.544.052-.264.319-.167.368-.322a11.78,11.78,0,0,0,.981-1.761c0-.1.5-.611.462-.709-.033-.03.017-.148.115-.272.176-.452.383-1.143.6-1.579.594-1.7.454-4.539.4-7.39a27.278,27.278,0,0,0-1.253-9.241,20.465,20.465,0,0,0-.75-2.194q-.136-.054-.082-.252c.137-.206-.373-.53-.342-.68-.063-.539-.64-1.44-.651-1.711.026-.2-.448-.388-.379-.573-.557-1.981-1.781-3.3-2.9-5.18a21.4,21.4,0,0,0-3.026-4.276c-1.05-1.14-1.632-2.015-2.747-3.134-1.771-1.807-1.085-1.3-2.206-2.5a25.24,25.24,0,0,1-2.948-4.264,11,11,0,0,1-2.186-4.07c-1.124-2.241-1.583-4.715-2.371-7.055a16.6,16.6,0,0,0-1.1-3.406,8.031,8.031,0,0,1-.63-1.357c-.388-.828-.488-1.225-.961-2.135-.205-.767-1.034-1.485-1.158-2.214a14.513,14.513,0,0,1-1.369-2.1c-1.43-1.548-2.952-3.579-4.932-4.454a10.055,10.055,0,0,0-5.508-1.121m3.331,28.04a10.854,10.854,0,0,1,1.336.477c.353.017.7.891,1.006,1.149,3.3,2.74,3.627,7.7,1.609,11.758-.2.815-.715.918-1.233,1.554-.492.615-.375.338-1.117.724a4.765,4.765,0,0,1-2.264.616c-.556.009-1.155-.244-1.625-.194-.111.063-.255.038-.536-.095-.889-.434-1.688-.684-2.552-1.134-1.843-.945-2.148-3.221-2.862-5.093a9.566,9.566,0,0,1,.272-4.388,9.916,9.916,0,0,1,2.334-3.583c1.5-2.087,2.987-1.936,5.633-1.793" transform="translate(-322.011 -362.652)"/>
      <path id="x" class="cls-2" d="M493.043,364.607c-2.236.148-3.517.093-5.495,1.159a22.749,22.749,0,0,0-3.271,2.227,11.374,11.374,0,0,0-2.229,1.9c-.265.1-.575.573-.851.738-.279.11-.141.213-.4.287a.227.227,0,0,0-.181.2c.021.191-.453.48-.46.644-.31.345-.427.351-.8.81a25.312,25.312,0,0,0-1.974,3.108c-.616,1.1-1.18,1.684-1.7,2.783-.8,1.086-1.583,2.494-2.294,3.547-.884,1.206-1.518,2.624-2.753,3.576a4.013,4.013,0,0,1-2.644,2.1c-1.016.284-1.286-.164-2.105-.446a5.081,5.081,0,0,1-1.522-2.259c.068-.244-.311-.249-.283-.4a.375.375,0,0,0-.029-.277c-.53-1.144-.3-1.8-1.108-2.5a4.964,4.964,0,0,0-.731-2.336c-.309-.514-.15-1.207-.547-1.8-.219-.317-.224-.851-.393-1.053-.3-.2-.57-1.518-.905-1.855-.089-.052-.142-.119-.115-.144.081-.388-.514-1-.724-1.461-.29-.707-1.8-2.147-1.862-2.492a1.762,1.762,0,0,0-.543-.687,12.936,12.936,0,0,1-1.632-1.5c-.53-.378-1.268-1-1.888-1.449-.7-.592-2.57-.914-3.056-1.333a15.6,15.6,0,0,0-6.393-1.255c-2.147.611-4.143,1.139-5.785,2.625-2.978,2.33-4.041,5.82-4.176,9.584a20.6,20.6,0,0,0,.765,4.2,29.035,29.035,0,0,0,1.694,3.236c.365.626.618,1.076.907,1.661.4.661,1.566,1.884,1.991,2.558,1,1.587,2.848,3.257,3.928,4.7,2.667,3.367,6.6,5.416,9.3,8.626,1.434,1.981,2.775,4.06,2.4,6.821-.2.9-.013,1.764-.32,2.316a3.772,3.772,0,0,0-.559,1.343c-.055.264-.665.652-.568.854,0,.211-.451.606-.512.745-.021.135-.705.965-.7,1.144-.092.36-.238.594-.395.631-1.02.919-1.687,2.5-2.63,3.476-.73.494-1.277,1.8-1.883,2.4a8.313,8.313,0,0,0-1.543,1.646,1.927,1.927,0,0,0-.743.956c0,.236-.935,1.156-.965,1.394a25.557,25.557,0,0,0-1.93,2.116,4.608,4.608,0,0,0-1.073,1.112c-.429.487-.46.186-.965.965-.4.495-.772.467-1.016,1.02-.034.176-.726.707-.784.93-.264.652-.655.772-.767,1.174a.365.365,0,0,1-.208.292,1.1,1.1,0,0,0-.522.767c0,.1-.039.18-.08.178-.1,0-.465.561-.471.726a5.413,5.413,0,0,0-.678,1.342c-3.033,4.62-2.712,10.437,1.84,13.812a8.1,8.1,0,0,0,2.208,1.511c.861.355,1.514.561,2.3.942a14.831,14.831,0,0,0,9.451-.067c.6-.189,1.316-.794,1.9-1.051.157.061,1.028-.838,1.174-.776s.7-.562.832-.54c.177-.031.1-.281.378-.329.394-.223.426-.572.856-.758.549-.289.912-1.02,1.372-1.491a11.639,11.639,0,0,0,2.079-3.063c1.516-2.936,2.016-6.589,2.5-9.865.215-1.038.59-3.507.743-4.368.343-.443.527-2.525.843-3.28a30.92,30.92,0,0,1,1.325-4.6,1.592,1.592,0,0,1,2.258-.621c.727.516.7,1.263,1.117,1.812a7.912,7.912,0,0,1,.472,1.364,16.609,16.609,0,0,1,.6,2.472,13.733,13.733,0,0,1,.672,2.846c.626,1.57,1.048,3.079,1.714,4.681.523,1.046.766,2.148,1.362,3.473a20.973,20.973,0,0,1,1.376,2.705,18.745,18.745,0,0,0,2.38,3.936c1,.858,2.089,2.148,3.41,2.661a6.059,6.059,0,0,0,1.938.48,8.4,8.4,0,0,0,3.568.265c.16-.2,1.59-.042,1.484-.353.029-.068.166-.118.315-.113a8.045,8.045,0,0,0,2.889-1.2,6.337,6.337,0,0,0,2.219-1.87,11.217,11.217,0,0,0,.9-2.436c.874-2.98.238-5.216-.272-8.27a33.969,33.969,0,0,0-3.921-9.552,44.136,44.136,0,0,0-2.8-4.464c-.643-1.159-1.373-1.382-2.189-2.593a42.474,42.474,0,0,0-3.7-4.118c-.44-.344-.258-.462-.591-.686a.5.5,0,0,1-.242-.269c-.007-.183-.455-.292-.48-.429.024-.09-.505-.658-.494-.74-.985-1.79-2.564-4.19-2.046-6.293.145-.668-.115-.487.281-1.162a6.838,6.838,0,0,1,.96-1.6,7.176,7.176,0,0,1,2.083-1.882c1.314-1.081,3.481-2.8,4.733-3.7,1.8-1.359,3.461-2.874,5.359-4.1a26.218,26.218,0,0,0,6.991-7.109,22.006,22.006,0,0,0,3.507-7.832c.418-3.329.226-6.292-1.512-8.322a12.854,12.854,0,0,0-3.685-3.422,7.306,7.306,0,0,0-3.282-1.013" transform="translate(-294.551 -362.334)"/>
      <path id="e-2" data-name="e" class="cls-2" d="M386.341,366.81a48.99,48.99,0,0,0-15.22,3.5,36.983,36.983,0,0,0-3.948,1.732,15.834,15.834,0,0,0-2.08,1.048c-.335.037-.754.513-1.109.6-.408.173-.616.5-.985.635a1.6,1.6,0,0,1-.771.4c-.38.315-1.073.727-1.518,1.08a11.465,11.465,0,0,0-1.851,1.435,8.434,8.434,0,0,0-2.013,1.8c-.159.264-.434.107-.556.408-.057.124-.148.219-.211.219-.132-.016-.419.429-.536.429a8.76,8.76,0,0,0-1.406,1.489c-.3.466-.967.7-1.274,1.3-.429.7-1.366,1.5-1.81,2.087-.3.522-1.4,1.715-1.542,2.024-.3.483-.96,1.316-1.314,1.781a12.957,12.957,0,0,0-1.417,2.152c-.241.36-.4.17-.732,1-.254.413-.36.514-.612.936-.226.191-.158.532-.3.656-.048,0-.126.148-.173.33-.163.485-.522.694-.684,1.155-.442,1.007-1.1,2.178-1.617,3.236-.663,1.7-1.748,3.4-2.078,5.311a39.559,39.559,0,0,0-1.708,11.228c-.132,4.571-.242,8.609.978,12.869.707,2.828.678,3.907,2.363,6.742a20,20,0,0,0,2.993,4.495c.906,1.707,2.79,2.8,4.105,4.231a21.5,21.5,0,0,0,7.066,4.377,9.616,9.616,0,0,0,2.821.954c.167.079.414-.163.528-.024.133.126.526.024.7.148a17.553,17.553,0,0,1,2.148.536,12.875,12.875,0,0,0,2.6.1,43.873,43.873,0,0,0,16.015-2.484c.568-.088,1.254-.57,1.855-.644.449-.15.816-.663,1.291-.817,1.64-1.069,1.524-.573,3.385-2.377a13.235,13.235,0,0,0,4.082-4.315,9.77,9.77,0,0,0,1.382-3.117,15.057,15.057,0,0,0,.648-5.736c-.633-2.911-2.28-5.928-5.065-7.191-1.33-1.321-4.146-.985-5.863-1.248a12.1,12.1,0,0,0-3.951.316,22.415,22.415,0,0,0-2.292.551,23.1,23.1,0,0,1-2.262,1.024c-.019.178-2.069.48-2.306.751-.474.168-.681.419-1.317.684-2.658,1.1-5.337,2.257-8.308,2.16-2.55-.386-5.015-1.019-6.731-3.051a6.139,6.139,0,0,1-.165-6.779c1.632-2.981,3.1-3.739,6.7-3.628a72.416,72.416,0,0,1,11.216.614c1.357.077,3.971.418,5.122-.061a25.017,25.017,0,0,0,5.137-.463c4.836-.971,9.757-5.064,9.081-10.523a7.228,7.228,0,0,0-2.022-4.713c-.532-.518-.368-.643-.862-.911a8.264,8.264,0,0,0-2.52-1.225c-4.811-1.626-10.4-.4-15.228.5a14.678,14.678,0,0,0-2.755.494c-1.328.088-4.11.676-5.092.136a6.73,6.73,0,0,1-2.425-1.34,3.935,3.935,0,0,1-.626-1.744c-.129-.629.395-1.518.623-2.1a6.446,6.446,0,0,1,2.288-2.607,3.152,3.152,0,0,1,1.27-.692,10.143,10.143,0,0,1,1.546-.7,16.04,16.04,0,0,1,4.623-1.195c3.352-.6,7.87.193,11.5.291,4.486.3,7.348-.429,11.332-1.575a7.879,7.879,0,0,0,1.971-1.072c1.309-.553,2.512-2.185,3.361-3.4,1.786-2.439,1.45-6.2-.363-8.7a17.125,17.125,0,0,0-4.52-3.777,22.169,22.169,0,0,0-8.589-1.744" transform="translate(-267.071 -363.009)"/>
      <path id="t" class="cls-2" d="M304.388,362.162c-3.308.448-6.034,1.587-9.059,2.507-2.744,1.389-5.9,2.537-8.684,3.893a28.222,28.222,0,0,0-5.587,2.049,26.091,26.091,0,0,0-3.472.707c-1.987.51-4.715-.093-7.056-.158-2.777-.37-4.836-1.042-7.665-1.033a62.976,62.976,0,0,0-7.274.026c-1.3.047-2.533.724-3.917.677a32.417,32.417,0,0,1-3.579,1.03c-.045.218-2.5.952-2.549,1.2-.415.592-1.341.781-1.88,1.274a19.188,19.188,0,0,0-3.658,3.975,2.754,2.754,0,0,0-.815,1.513c.12.155-.907,1.949-1.033,2.944a18.549,18.549,0,0,0,.548,8.05c.653,1.873,2.254,2.966,3.72,3.956a10.775,10.775,0,0,0,6.622,2.232,7.984,7.984,0,0,0,3.324.1c2.953-.566,5.426-1.864,8.113-2.836,3.058-1.835,7.278-4.31,10.9-2.6,3.751,1.717,3.258,6.443,2.651,10.185-.373,2.843-1.612,4.867-2.56,7.661-1.725,4.865-3.481,9.72-4.9,14.523a34.644,34.644,0,0,0-1.938,14.918c.09,5.134,1.377,8.446,4.714,11.6a6.953,6.953,0,0,0,3.167,2.444c5.231,1.39,12.845.011,14.935-5.777,3.041-5.8,2.821-12.434,2.846-18.794-.01-2.773.006-4.5-.161-7.014-.007-3.155.156-7.22-.087-10.267a18.789,18.789,0,0,0-.193-5.051,64.93,64.93,0,0,1,.5-7.9c.424-4.064,1.708-8.152,5.237-10.6,3.665-1.522,8.019-2.195,11.868-2.9,4.146-1.132,8.4-2.863,10.973-6.249,2.908-3.668,2.635-10.062-.928-13.137-3.113-3.421-8.861-3.223-13.121-3.159" transform="translate(-237.951 -361.685)"/>
    </g>
    <g id="tower" transform="translate(57.223 980.214)">
      <path id="tower-white" class="cls-2" d="M434.336,0a13.886,13.886,0,0,0-2.36.262c0,.673.014,2.261.084,2.7.077.479-.017.577-.4.416-.336-.195-.553.153-.866-.037-.59-.065-5.98-.585-5.183.693a25.783,25.783,0,0,0-.136,3.352c-.123,2.024.161,1.134-2.38,1.371-2.274-.027-1.724.178-3.225.042-.865.09-1.08-.5-1.393.411-.232.335.234.752.2,1.024-.261.565.259.7.171,1.238a11.32,11.32,0,0,0,1.276,3.6c.475.094,2.838.132,3.264.23.249,3.819-.035,8.366.114,12.17a175.444,175.444,0,0,1,.315,23.72c-.025,1.232.081,1.729-.583.813a19.936,19.936,0,0,0-3.627-2.807,30.157,30.157,0,0,1-2.917-2.446c-.96-.58-.2-.526-2.995-.546-.693,0-.914.2-.939.876.381,8.011.967,16.518,1.309,24.551.054,1.139-.058,1.223.211,4.578.057.767.189.924.777.923,2.09-.242,2.655.155,5.377.006,3.292.171,10.584-.08,15.025.176a62.142,62.142,0,0,1,6.447.348c4.247-.171,9.059.084,12.99-.2,3.246-.183,7.571.277,10.829-.02.045,0,.846.021,1.769.039,1.674.031,1.688.029,1.865-.17.668-1.216.05-.742.2-2.531a15.073,15.073,0,0,0-.022-4.029,82.2,82.2,0,0,0-.063-9.617c-.2-5.372-.77-7.587-.958-13.333a18.736,18.736,0,0,0-.341-3.573c-.118-.186-.145-.19-1.44-.155-1.955.051-1.993.056-2.286.269-.717.886-1.463,2.4-2.132,3.248a25.853,25.853,0,0,0-1.81,2.009c-.846,1.078-1.521,2.323-2.314,3.446-.173.142-.327-.337-.287-.889.021-.743-.184-.73-.167-1.692-.256-2.441-.007-5.086-.37-7.54-.155-4.171-.352-9.715-.844-13.984-.383-3.049-.275-9.854-.642-11.484.075-.054-.13-.4-.112-.434.961-.133,3.38.331,3.339-1.233a19.706,19.706,0,0,1,.763-3.842c.3-1.111.723-1.818-1.294-1.637-1.909-.17-3.082.089-5.273-.092-1.2.027-1.63-.048-1.6-.276a6.026,6.026,0,0,0-.085-2.235,6.538,6.538,0,0,0,.219-2.523c-.14-.214.143-.191.1-.477.176-1.137-6.221-.048-6.225-.715a13.77,13.77,0,0,1-.067-2.512c.1-.346.09-.389-.083-.565-1.043-.366-2.9-.214-4.121-.467-2.022-.386-5.192-.279-7.1-.456m7.574,16.718.4-.014c-.377,4.391-.084,8.6-.176,12.848.014,2.672-.618,7.184-.189,10.077-.78-.148-2.163.252-2.667-.156a5.873,5.873,0,0,1-.191-1.9.63.63,0,0,1,.047-.734c.214-.316-.148-2.444-.038-2.854.11-5.405.17-11.527.237-17.186a20.05,20.05,0,0,1,2.573-.083m-8.718.14c1.253.029,1.147-.026,1.143.588.039,1.369,0,4.253.017,5.818-.171,5.166-.324,9.584-.17,14.98-.095,1.309.471,1.494-.937,1.314-1.171-.144-1.068.174-2.017-.005-1.228.1-.226-4.417-.371-6.636.008-4.686.2-6.7.226-10.889-.092-2.424-.073-1.822-.029-4.97.515-.462,1.311-.2,2.137-.2m14.542.3c.091.151,1.852-.057,1.975.091.483.469.258,2.113.426,2.909,0,2.717.449,2.6.314,4.488a43.034,43.034,0,0,1,.245,6.641c-.5,2.481.256,5.645-.257,8.064a21.311,21.311,0,0,1-3.7.2c.05-9.008.273-10.9-.036-17.435.074-1.693-.115-3.5.108-4.783-.034-.139.013-.166.3-.167.352.062.436-.225.627-.009m-4.985,29.1c2.268.245,4.519,2.005,6.118,3.549.962,1.049,1.128,2.679,1.429,4.343a14.016,14.016,0,0,1-.752,7.434,10.22,10.22,0,0,1-5.507,4.4c-1.167.261-3.837.4-5.207.51-.861.287-1.23-.183-2.1-.2a4.6,4.6,0,0,1-2.151-1.02,7.982,7.982,0,0,1-2.63-2.062,8.98,8.98,0,0,1-1.239-7.731,4.338,4.338,0,0,1,.957-2.047,10.367,10.367,0,0,1,1.231-2.355c.153-.426.478-.751.65-1.147.042-.2.3-.077.32-.386a5.942,5.942,0,0,1,1.438-1.283,4.053,4.053,0,0,0,.894-.438,9.147,9.147,0,0,1,6.55-1.565m-18.005,33.56a5.431,5.431,0,0,1,2.275.153c1.456-.024,4.684-.353,6.548.044,2.614.247,6.909.3,9.3.594.987.188,3.163-.465,4.109-.319,2.415.245,5.344-.015,7.511.388,5.449.307,15.957-.646,21.426-.085.512,1.306.186,5.192.236,5.847.071,1.121.719,3.894-1.263,3.44-6.965-.061-12.556-.339-18.725-.018-5.15.244-11.634-.2-16.924.188-6.649.283-13.367,1.013-20.289.2a50.721,50.721,0,0,1-6.557.107c-3.23.4-3.267.149-3.174-2.952a33.268,33.268,0,0,0-.282-7.016c-.124-.239.113-.326.922-.336a47.466,47.466,0,0,1,5.231.2c3.259-.277,6.532.089,9.656-.434m33.465,13.623c1.083-.032,3.526.094,4.363-.016a33.33,33.33,0,0,0,5.343.136,19.968,19.968,0,0,0,2.709-.041c.339-.065.441-.055.548.053.353.336,1.067-.05,1.654-.031.717-.1.516.09.722.433a97.112,97.112,0,0,1-.014,15.018,10.9,10.9,0,0,0,.247,2.847,52.89,52.89,0,0,0-.079,5.323c.575,8.1.7,16.1.535,24.2a7.789,7.789,0,0,0,.028,2.775c-.068.182,0,4.178-.141,4.523-.385.788.593,4.393-.78,4.128-4.4-.108-9.3.441-14.058.122-.32.061-.181-1.8-.116-1.91.115-.333-.229-.641.039-1.035.126-.272.14-.383.066-.548a47.887,47.887,0,0,1-.121-7.645c.248-3.08-.15-8.086-.141-11.329a10.321,10.321,0,0,0-.038-2.767c-.312-1.1-.353-1.37-.239-1.56.268-3.756.446-6.841.4-11.408.025-4.274-.5-7.159-.557-10.894-.175-3.271-.652-7.417-.367-10.379M413,93.232c5.4-.032,11.537.317,17.03.671.44,4-.176,10.267.144,13.949.019,1.876-.461,4.263-.31,6.054.224,1.147.143,6.119.219,6.323a21.142,21.142,0,0,1,.089,3.481,70.925,70.925,0,0,1-.015,10.053,7.912,7.912,0,0,0,.092,2.409c.387.971.026,4.483-.049,5.278-.063,3.523.2,4.613-.075,10.613.067,1.85-.574,1.005-1.417,1.191-2.789.007-6.575.235-9.387.244a21.586,21.586,0,0,1-3.647-.4,27.292,27.292,0,0,1-2.82.058,64.566,64.566,0,0,1,.3-9.268c-.108-3.853-.081-8.244-.016-11.558.011-5.988-.674-11.645-.234-17.539-.355-4.625-.434-9.394-.321-13.985-.173-1.656.062-3.976.063-5.6-.114-1.577-.122-1.266.355-1.973m39.767.651c1.964.365.709,5.539.985,7.363.219,3.346-.022,6.242-.055,9.513.407,7.253.551,14.905.463,22.22-.006,5.62.467,11.108.165,16.685-.15,3.984.4,2.808-3.45,3.132-1.592.071-.821-1.931-1-3.176a21.852,21.852,0,0,1,.167-3.619,133.825,133.825,0,0,0-.2-13.749,15.235,15.235,0,0,0-.194-2.867,1.035,1.035,0,0,0-.125-.945c-.294-3.838.143-7.553.151-11.186.045-1.607-.54-3.736-.1-5.271-.034.007-.195-2.7,0-2.548.222-.671-.031-2.975.115-3.5,0-.437.464-1.035.378-1.573-.448-2.846-.342-5.9-.514-8.782-.34-2.223,1.609-1.2,3.218-1.7M436.128,94c.646.016,2.106-.387,2.153.6a8.632,8.632,0,0,1,.17,2.6c.056,1.808.6,4.264.4,6.155-.228,2.028.252,3.364.158,5.885a26.325,26.325,0,0,0,.112,4.582c.152,3.785-.13,7.62.236,11.184a14.673,14.673,0,0,1-.052,2.358,16.325,16.325,0,0,1,.172,3.737c-.334,2.99-.094,7.544-.307,9.491-.189,1.147.254,2.339.135,3.374,0,2.31.149,5.424.223,7.911.49,1.521-2.812.713-3.547.909-2.024.381-1.25-2.166-1.4-3.521.144-1.483.042-4.211.456-5.589-.313-1.286.011-5.736-.076-7.873.025-2.3-.676-5.332-.328-7.313a34.682,34.682,0,0,0,.125-9.615c.006-2.845-.148-4.5-.072-6.54.067-1.225-.413-1.936-.489-2.972.156-1.351-.317-4.287-.05-5.65.2-2.009-.317-3.552.1-5.549a24.555,24.555,0,0,0-.124-3.989c.063-.254,1.743-.094,2-.174m8.114.176c1.748-.327,2.679.15,2.557,1.92.631,3.3.066,7.291.223,10.735a161.014,161.014,0,0,1-.139,19.062c.145,4.535.153,10.583.2,14.863a38.011,38.011,0,0,1,.134,6.936,39.338,39.338,0,0,1,.016,4.553c-.1.6-.217.684-.943.682-1.106-.082-2.278.24-3.053.06-.259-.412-.075-1.4-.087-1.741-.277-.4.135-.75-.054-1.278-.636-2.231.125-4.225-.2-6.78a16.833,16.833,0,0,1,.134-5.129c-.075-3.9.1-8.472-.219-12.467-.274-7.417.254-15.484.113-22.765a78.4,78.4,0,0,1-.533-7.912c.106-.105.113-.164.03-.3-.364-.726,1.46-.369,1.822-.441m-55.135,85.241a18.967,18.967,0,0,1,2.974.563,34.315,34.315,0,0,1,4.705-.057,22.938,22.938,0,0,1,5.066-.312c4.293-.027,6.911.336,10.581.1a19.262,19.262,0,0,1,4.774.087c.585.325,4.224.236,3.865.426.275.1.563-.08,1.382-.043,9.608.161,19.481.109,28.767.424,14.37.422,30.66.168,45.017.56,1.027-.054,2.5-.407,2.468,1.061-.047.537.328.416.2.954-.1,1.382.223,2.657.231,3.984.056,4.447.676,7.225.627,11.789a71.213,71.213,0,0,0,.033,9.583c-1.009,1.119-2.053.363-3.9.565a108.553,108.553,0,0,0-11.094.143c-.327.079-.46-.087-.456-.565a8.308,8.308,0,0,0-.122-2.31,26.2,26.2,0,0,1-.327-2.8c-.3-1.676-.657-3.42-1.05-5-.307-.787-.312-1.9-.879-2.484a.22.22,0,0,0-.168-.153c-.384.142-.755-1.564-1.245-1.521a1.658,1.658,0,0,1-.783-.607,6.362,6.362,0,0,0-2.564-.88c-3.67-.763-5.584.5-7.511,3.106a6.357,6.357,0,0,0-1.609,3.841c-.312.477.145,1.238-.07,1.6-.34.107.046.468,0,.705.014,2.037-.007,4.188-.125,6.2.451,1.67-1.933,1.382-3.051,1.263a7.529,7.529,0,0,1-1.778.062c-3.081-.257-6.277.291-9.211-.15-.4.322-.027-4.6-.316-4.869-.331-2.042-.284-4.366-.967-6.335a26.734,26.734,0,0,0-1.417-2.928c-.328-.58-.721-.467-1.242-1.249-2.253-1.7-5.637-2.348-8.045-.528a5.75,5.75,0,0,0-2.138,2.184c-.269.255.016.541-.26.737-.169.26-.325.837-.5,1.135-1.057,2.9-.716,5.794-.754,8.993-.2.857.483,1.341.03,2.078-.016.352-1.364.172-2.233.247a44.482,44.482,0,0,0-5.224-.033c-2.068-.02-4.032.219-5.881.14-.841.067-.737-.609-.833-1.225a6.881,6.881,0,0,1-.257-2.537c-.522-2.47-.705-4.758-1.334-6.882.072-.387-.8-1.565-1.027-2.027a3.528,3.528,0,0,0-.679-1.357c-2.622-2.652-7.495-3.265-10.992-2.386a14.625,14.625,0,0,0-5.062,3.115,6.7,6.7,0,0,0-2.387,3.609c-.409,2.277-.09,4.887-.234,7.409-.3.831.951,3.736-1.025,3.084-4.462-.072-3.546-.234-9.451-.05-2.567-.189-3.82.9-3.483-1.822.231-3.41.585-7.281.593-10.833-.343-2.012-.424-7.218-.486-8.968a36.562,36.562,0,0,1,.039-4.065c.107-3.321-.442-4.133.818-4.778" transform="translate(-382.731 0)"/>
      <path id="tower-orng" class="cls-3" d="M488.007,175.615c.963-.075,2.626-.182,2.68,1.361.311.927.634,1.9.964,2.806a7.225,7.225,0,0,1,.848,2.166,28.338,28.338,0,0,1,1.026,2.732c.827,2.11,1.453,3.906,2.208,6.116.912,2.128.837,2.649,1.668,4.514.836,1.53-4.416.545-8.845.79-8.9-.43-19.074.038-27.227-.681-12.721-.341-23.118.054-35.58.35-6.949-.254-12.126.054-17.985-.275-5.172.325-11.011.313-16.225.452-1.779.163-7.253.313-8.4,0s-3.468.422-2.11-1.363c.227-1.014.724-1.081.967-1.841a22.676,22.676,0,0,1,1.753-3.4,28.762,28.762,0,0,1,1.62-3.251c.5-.858.587-1.342,1.089-2.109.377-.737.885-1.176,1.352-1.95a2.1,2.1,0,0,1,.7-.881c.213-.207.353-.859.7-1.341.12-.568.732-.72.79-1.179.264-.9.963-1.172,1-2.336,10.014-.538,20.157-.416,29.618-.424,6.96.1,13.2-.6,19.785-.044,15.778-.138,31.564.676,47.6-.209M436.855,67.7a6.582,6.582,0,0,0-3.43,1.428,12.1,12.1,0,0,0-3.165,5.318c-.01,3.694-.027,2.88,1.195,5.137.09.535.637.823.87,1.313a3.471,3.471,0,0,0,.683.9,14.209,14.209,0,0,0,3.726,1.752c.818.467,2.364.21,3.461.317,1.313.07.995-.095,1.759-.274a7.333,7.333,0,0,0,2.209-1.124,9.86,9.86,0,0,0,2.38-5.449,6.841,6.841,0,0,0-.548-4.654,2.44,2.44,0,0,0-1.023-1.965,15.866,15.866,0,0,0-2.981-2.056,13.53,13.53,0,0,0-5.135-.642" transform="translate(-380.612 -19.17)"/>
    </g>
  </g>
</svg>
